<mxfile host="app.diagrams.net" agent="Mozilla/5.0 (Windows NT 10.0; Win64; x64) AppleWebKit/537.36 (KHTML, like Gecko) Chrome/141.0.0.0 Safari/537.36 Edg/141.0.0.0" version="28.2.7">
  <diagram name="Page-1" id="4CND9Cj8ioIALWmbR7e8">
    <mxGraphModel dx="1418" dy="786" grid="1" gridSize="10" guides="1" tooltips="1" connect="1" arrows="1" fold="1" page="1" pageScale="1" pageWidth="827" pageHeight="1169" math="0" shadow="0">
      <root>
        <mxCell id="0" />
        <mxCell id="1" parent="0" />
        <mxCell id="IO0VPzGQ15ZabrI9DThW-30" value="" style="group" vertex="1" connectable="0" parent="1">
          <mxGeometry x="160" y="20" width="200" height="90" as="geometry" />
        </mxCell>
        <mxCell id="IO0VPzGQ15ZabrI9DThW-29" value="&lt;span style=&quot;line-height: 115%; font-family: Aptos, sans-serif;&quot;&gt;&lt;font style=&quot;font-size: 10px;&quot;&gt;Collect Sentinel-1 SAR, Sentinel-2 optical, UAV, LiDAR, and LCM 2024 datasets&lt;/font&gt;&lt;/span&gt;" style="rounded=0;whiteSpace=wrap;html=1;align=center;strokeColor=light-dark(#fffafa, #ededed);fillColor=light-dark(#cfcece, #ededed);" vertex="1" parent="IO0VPzGQ15ZabrI9DThW-30">
          <mxGeometry y="30" width="200" height="60" as="geometry" />
        </mxCell>
        <mxCell id="IO0VPzGQ15ZabrI9DThW-11" value="Data Acquisition" style="rounded=1;whiteSpace=wrap;html=1;fillColor=#fff2cc;strokeColor=#d6b656;" vertex="1" parent="IO0VPzGQ15ZabrI9DThW-30">
          <mxGeometry width="200" height="30" as="geometry" />
        </mxCell>
        <mxCell id="IO0VPzGQ15ZabrI9DThW-31" value="" style="group" vertex="1" connectable="0" parent="1">
          <mxGeometry x="160" y="160" width="200" height="90" as="geometry" />
        </mxCell>
        <mxCell id="IO0VPzGQ15ZabrI9DThW-20" value="&lt;span style=&quot;line-height: 115%; font-family: Aptos, sans-serif;&quot;&gt;&lt;font style=&quot;font-size: 10px;&quot;&gt;Apply atmospheric correction (Sentinel-2), calibration and terrain correction (Sentinel-1), generate orthomosaics (UAV)&lt;/font&gt;&lt;/span&gt;" style="rounded=0;whiteSpace=wrap;html=1;align=center;strokeColor=light-dark(#fffafa, #ededed);fillColor=light-dark(#cfcece, #ededed);" vertex="1" parent="IO0VPzGQ15ZabrI9DThW-31">
          <mxGeometry y="30" width="200" height="60" as="geometry" />
        </mxCell>
        <mxCell id="IO0VPzGQ15ZabrI9DThW-12" value="Pre-processing" style="rounded=1;whiteSpace=wrap;html=1;fillColor=#fff2cc;strokeColor=#d6b656;" vertex="1" parent="IO0VPzGQ15ZabrI9DThW-31">
          <mxGeometry width="200" height="30" as="geometry" />
        </mxCell>
        <mxCell id="IO0VPzGQ15ZabrI9DThW-32" value="" style="group" vertex="1" connectable="0" parent="1">
          <mxGeometry x="160" y="300" width="200" height="90" as="geometry" />
        </mxCell>
        <mxCell id="IO0VPzGQ15ZabrI9DThW-21" value="&lt;div&gt;&lt;span style=&quot;background-color: transparent; color: light-dark(rgb(0, 0, 0), rgb(255, 255, 255)); font-family: Aptos, sans-serif; font-size: 10px;&quot;&gt;Derive NDVI, EVI, NDWI, VV/VH ratio, coherence, slope,&lt;/span&gt;&lt;/div&gt;&lt;div&gt;&lt;font face=&quot;Aptos, sans-serif&quot;&gt;&lt;span style=&quot;font-size: 10px;&quot;&gt;aspect, CHM&lt;/span&gt;&lt;/font&gt;&lt;/div&gt;" style="rounded=0;whiteSpace=wrap;html=1;align=center;strokeColor=light-dark(#fffafa, #ededed);fillColor=light-dark(#cfcece, #ededed);" vertex="1" parent="IO0VPzGQ15ZabrI9DThW-32">
          <mxGeometry y="30" width="200" height="60" as="geometry" />
        </mxCell>
        <mxCell id="IO0VPzGQ15ZabrI9DThW-13" value="Feature Extraction" style="rounded=1;whiteSpace=wrap;html=1;fillColor=#fff2cc;strokeColor=#d6b656;" vertex="1" parent="IO0VPzGQ15ZabrI9DThW-32">
          <mxGeometry width="200" height="30" as="geometry" />
        </mxCell>
        <mxCell id="IO0VPzGQ15ZabrI9DThW-33" value="" style="group" vertex="1" connectable="0" parent="1">
          <mxGeometry x="160" y="440" width="200" height="90" as="geometry" />
        </mxCell>
        <mxCell id="IO0VPzGQ15ZabrI9DThW-23" value="&lt;span style=&quot;line-height: 115%; font-family: Aptos, sans-serif;&quot;&gt;&lt;font style=&quot;font-size: 10px;&quot;&gt;Combine optical, SAR, and terrain features using rule-based thresholds&lt;/font&gt;&lt;/span&gt;" style="rounded=0;whiteSpace=wrap;html=1;align=center;strokeColor=light-dark(#fffafa, #ededed);fillColor=light-dark(#cfcece, #ededed);" vertex="1" parent="IO0VPzGQ15ZabrI9DThW-33">
          <mxGeometry y="30" width="200" height="60" as="geometry" />
        </mxCell>
        <mxCell id="IO0VPzGQ15ZabrI9DThW-14" value="Classification &amp;amp; Fusion" style="rounded=1;whiteSpace=wrap;html=1;fillColor=#fff2cc;strokeColor=#d6b656;" vertex="1" parent="IO0VPzGQ15ZabrI9DThW-33">
          <mxGeometry width="200" height="30" as="geometry" />
        </mxCell>
        <mxCell id="IO0VPzGQ15ZabrI9DThW-34" value="" style="group" vertex="1" connectable="0" parent="1">
          <mxGeometry x="160" y="585" width="200" height="90" as="geometry" />
        </mxCell>
        <mxCell id="IO0VPzGQ15ZabrI9DThW-24" value="&lt;span style=&quot;line-height: 115%; font-family: Aptos, sans-serif;&quot;&gt;&lt;font style=&quot;font-size: 10px;&quot;&gt;Compare classifications with UAV ground-truth data, compute accuracy metrics (kappa, F1, confusion matrix)&lt;/font&gt;&lt;/span&gt;" style="rounded=0;whiteSpace=wrap;html=1;align=center;strokeColor=light-dark(#fffafa, #ededed);fillColor=light-dark(#cfcece, #ededed);" vertex="1" parent="IO0VPzGQ15ZabrI9DThW-34">
          <mxGeometry y="30" width="200" height="60" as="geometry" />
        </mxCell>
        <mxCell id="IO0VPzGQ15ZabrI9DThW-15" value="Validation" style="rounded=1;whiteSpace=wrap;html=1;fillColor=#fff2cc;strokeColor=#d6b656;" vertex="1" parent="IO0VPzGQ15ZabrI9DThW-34">
          <mxGeometry width="200" height="30" as="geometry" />
        </mxCell>
        <mxCell id="IO0VPzGQ15ZabrI9DThW-35" value="" style="group" vertex="1" connectable="0" parent="1">
          <mxGeometry x="160" y="720" width="200" height="90" as="geometry" />
        </mxCell>
        <mxCell id="IO0VPzGQ15ZabrI9DThW-25" value="&lt;span style=&quot;line-height: 115%; font-family: Aptos, sans-serif;&quot;&gt;&lt;font style=&quot;font-size: 10px;&quot;&gt;Cross-tabulate with LCM 2024 to assess agreement&lt;/font&gt;&lt;/span&gt;" style="rounded=0;whiteSpace=wrap;html=1;align=center;strokeColor=light-dark(#fffafa, #ededed);fillColor=light-dark(#cfcece, #ededed);" vertex="1" parent="IO0VPzGQ15ZabrI9DThW-35">
          <mxGeometry y="30" width="200" height="60" as="geometry" />
        </mxCell>
        <mxCell id="IO0VPzGQ15ZabrI9DThW-16" value="Reference Comparision" style="rounded=1;whiteSpace=wrap;html=1;fillColor=#fff2cc;strokeColor=#d6b656;" vertex="1" parent="IO0VPzGQ15ZabrI9DThW-35">
          <mxGeometry width="200" height="30" as="geometry" />
        </mxCell>
        <mxCell id="IO0VPzGQ15ZabrI9DThW-36" value="" style="group" vertex="1" connectable="0" parent="1">
          <mxGeometry x="160" y="860" width="200" height="90" as="geometry" />
        </mxCell>
        <mxCell id="IO0VPzGQ15ZabrI9DThW-26" value="&lt;span style=&quot;line-height: 115%; font-family: Aptos, sans-serif;&quot;&gt;&lt;font style=&quot;font-size: 10px;&quot;&gt;Convert to UKHab categories and aggregate into BNG units&lt;/font&gt;&lt;/span&gt;" style="rounded=0;whiteSpace=wrap;html=1;align=center;strokeColor=light-dark(#fffafa, #ededed);fillColor=light-dark(#cfcece, #ededed);" vertex="1" parent="IO0VPzGQ15ZabrI9DThW-36">
          <mxGeometry y="30" width="200" height="60" as="geometry" />
        </mxCell>
        <mxCell id="IO0VPzGQ15ZabrI9DThW-17" value="UKHab Roll Up" style="rounded=1;whiteSpace=wrap;html=1;fillColor=#fff2cc;strokeColor=#d6b656;" vertex="1" parent="IO0VPzGQ15ZabrI9DThW-36">
          <mxGeometry width="200" height="30" as="geometry" />
        </mxCell>
        <mxCell id="IO0VPzGQ15ZabrI9DThW-37" value="" style="group" vertex="1" connectable="0" parent="1">
          <mxGeometry x="160" y="1000" width="200" height="90" as="geometry" />
        </mxCell>
        <mxCell id="IO0VPzGQ15ZabrI9DThW-27" value="&lt;span style=&quot;line-height: 115%; font-family: Aptos, sans-serif;&quot;&gt;&lt;font style=&quot;font-size: 10px;&quot;&gt;Generate maps, tables, GitHub documentation, and regulator-ready workflow&lt;/font&gt;&lt;/span&gt;" style="rounded=0;whiteSpace=wrap;html=1;align=center;strokeColor=light-dark(#fffafa, #ededed);fillColor=light-dark(#cfcece, #ededed);" vertex="1" parent="IO0VPzGQ15ZabrI9DThW-37">
          <mxGeometry y="30" width="200" height="60" as="geometry" />
        </mxCell>
        <mxCell id="IO0VPzGQ15ZabrI9DThW-18" value="Reporting &amp;amp; Outputs" style="rounded=1;whiteSpace=wrap;html=1;fillColor=#fff2cc;strokeColor=#d6b656;" vertex="1" parent="IO0VPzGQ15ZabrI9DThW-37">
          <mxGeometry width="200" height="30" as="geometry" />
        </mxCell>
      </root>
    </mxGraphModel>
  </diagram>
</mxfile>
